<svg xmlns="http://www.w3.org/2000/svg" viewBox="0 0 280 400">
    <!-- Speech Bubble Group -->
    <g>
        <!-- Yellow Speech Bubble -->
        <path fill="none" stroke="#F2CE40" stroke-width="3" d="M135.5 66.1v83.8h97.1v24l24-24h11.9V66.1z"/>
        <!-- Yellow Lines inside bubble -->
        <line stroke="#F2CE40" stroke-width="5" x1="172.7" y1="96" x2="235.6" y2="96"/>
        <line stroke="#F2CE40" stroke-width="5" x1="199.7" y1="108" x2="275.5" y2="108"/>
        <line stroke="#F2CE40" stroke-width="5" x1="199.7" y1="120" x2="259.6" y2="120"/>
    </g>
    
    <!-- Teal Speech Bubble -->
    <path fill="#48C5B6" d="M0.3 -0.5v114h17.4l30.6 30.7v-30.7h119v-114H0.3zM36.3 36.5h39v5h-39v-5zM131.3 76.5h-95v-4h95v4zM131.3 64.5h-95v-4h95v4zM131.3 52.5h-95v-4h95v4z"/>
    
    <!-- Left Character -->
    <g fill="#48C5B6">
        <!-- Body -->
        <path d="M136.1 295.1l-20.5-68.9c-3.8-12.6-15.4-21.3-28.5-21.3l-9.7 5.4-9.7-5.4c-13.2 0-24.8 8.6-28.5 21.3l-20.5 68.9c-1.6 5.4 1.4 11.1 6.8 12.7c5.3 1.6 10.9-1.2 12.7-6.4l10.1-29.1l0.2 18.6l-3.8 98.7c-0.2 4.9 3.8 9 8.8 9h1.6c0.1 0 0.3 0 0.4 0c0.1 0 0.3 0 0.4 0h0c4.3 0 8-3.1 8.7-7.4l11.4-72.6l1.4-8.3l1.4 8.3l11.4 72.6c0.7 4.3 4.3 7.4 8.7 7.4h0c0.1 0 0.3 0 0.4 0c0.1 0 0.3 0 0.4 0h1.6c5 0 8.9-4.1 8.8-9l-3.8-98.7l0.2-18.6l10.1 29.1c1.8 5.2 7.5 8.1 12.7 6.4C134.7 306.2 137.7 300.5 136.1 295.1z"/>
        <!-- Head -->
        <path d="M77.4 199.8c0 0 0 0 0 0c0 0 0 0 0.1 0c12.5 0 22.6-10.1 22.6-22.6c0-12.5-10.1-22.6-22.6-22.6c0 0 0 0-0.1 0c0 0 0 0 0 0c-12.5 0-22.6 10.1-22.6 22.6C54.8 189.7 64.9 199.8 77.4 199.8z"/>
    </g>
    
    <!-- Right Character -->
    <g fill="#FFD58B">
        <!-- Body -->
        <path d="M261.5 295.1l-20.5-68.9c-3.8-12.6-15.4-21.3-28.5-21.3l-9.7 5.4-9.7-5.4c-13.2 0-24.7 8.6-28.5 21.3l-20.5 68.9c-1.6 5.4 1.4 11.1 6.8 12.7c5.3 1.6 10.9-1.2 12.7-6.4l10.1-29.1l0.2 18.6l-3.8 98.7c-0.2 4.9 3.8 9 8.8 9h1.6c0.2 0 0.3 0 0.4 0c0.1 0 0.3 0 0.4 0h0c4.3 0 8-3.1 8.7-7.4l11.4-72.6l1.4-8.3l1.4 8.3l11.4 72.6c0.7 4.3 4.3 7.4 8.7 7.4c0.1 0 0.3 0 0.4 0c0.1 0 0.3 0 0.4 0h1.6c5 0 8.9-4.1 8.8-9l-3.8-98.7l0.2-18.6l10.1 29.1c1.8 5.2 7.5 8.1 12.7 6.4C260.1 306.2 263.1 300.5 261.5 295.1z"/>
        <!-- Head -->
        <path d="M202.8 199.8c0 0 0 0 0.1 0c0 0 0 0 0 0c12.5 0 22.6-10.1 22.6-22.6c0-12.5-10.1-22.6-22.6-22.6c0 0 0 0 0 0c0 0 0 0-0.1 0c-12.5 0-22.5 10.1-22.5 22.6C180.2 189.7 190.3 199.8 202.8 199.8z"/>
    </g>
</svg>
